{
  "asset" : {
    "generator" : "UE Viewer (umodel) build 1579 based",
    "version" : "2.0"
  },
  "scene" : 0,
  "scenes" : [
    {
      "nodes" : [ 0 ]
    }
  ],
  "nodes" : [
    {
      "name" : "SK_CH_E000_00",
      "mesh" : 0,
      "skin" : 0,
      "children" : [ 1 ]
    },
    {
      "name" : "Root_J",
      "children" : [ 2 ],
      "translation" : [ 0, 0, 0 ],
      "rotation" : [ -0, -0, -0, 1 ]
    },
    {
      "name" : "Rot_J",
      "children" : [ 3, 4 ],
      "translation" : [ 0, 0.963, -0 ],
      "rotation" : [ -0, -0, 0, -1 ]
    },
    {
      "name" : "Throw_J",
      "translation" : [ 0, 0, -0 ],
      "rotation" : [ -0, -0, 0, -1 ]
    },
    {
      "name" : "Hip_J",
      "children" : [ 5, 92, 103, 114, 115, 116 ],
      "translation" : [ 6.24e-07, -0.00963, -0 ],
      "rotation" : [ 0, -0, -0.707107, -0.707107 ]
    },
    {
      "name" : "Spine1_J",
      "children" : [ 6 ],
      "translation" : [ 0.2664, 2.4e-08, -2.4e-08 ],
      "rotation" : [ -0, -0, 0, -1 ]
    },
    {
      "name" : "Spine2_J",
      "children" : [ 7, 90, 91 ],
      "translation" : [ 0.29412, 6.77626e-23, -0 ],
      "rotation" : [ -0, -0, 0, -1 ]
    },
    {
      "name" : "Spine3_J",
      "children" : [ 8, 20, 54, 88, 89 ],
      "translation" : [ 0.3249, 0, -0 ],
      "rotation" : [ -0, -0, 0, -1 ]
    },
    {
      "name" : "Neck_J",
      "children" : [ 9 ],
      "translation" : [ 0.0342, 0, 0.0809999 ],
      "rotation" : [ -0, -0, 0, -1 ]
    },
    {
      "name" : "Head_J",
      "children" : [ 10, 14, 17 ],
      "translation" : [ 0.11115, 0, 0.027 ],
      "rotation" : [ -0, -0, 0, -1 ]
    },
    {
      "name" : "Jaw_J",
      "children" : [ 11 ],
      "translation" : [ -0.0200458, 6e-07, 0.32046 ],
      "rotation" : [ -0, 0.707107, -0, -0.707107 ]
    },
    {
      "name" : "Tongue1_J",
      "children" : [ 12 ],
      "translation" : [ 0.0486, 0, -0 ],
      "rotation" : [ 1.74777e-35, -0.0226873, 7.70174e-34, -0.999743 ]
    },
    {
      "name" : "Tongue2_J",
      "children" : [ 13 ],
      "translation" : [ 0.1764, 0, -0 ],
      "rotation" : [ -0, 0.0671459, -0, -0.997743 ]
    },
    {
      "name" : "Tongue3_J",
      "translation" : [ 0.099, 0, -0 ],
      "rotation" : [ -0, -0, -1.54074e-33, -1 ]
    },
    {
      "name" : "LeftEar1_J",
      "children" : [ 15 ],
      "translation" : [ 0.296184, -0.124199, 0.29861 ],
      "rotation" : [ -0.0770917, 0.357969, 0.195909, -0.909689 ]
    },
    {
      "name" : "LeftEar2_J",
      "children" : [ 16 ],
      "translation" : [ 0.2214, 0, -0 ],
      "rotation" : [ 0.0209612, -0.0462088, 0.00162531, -0.998711 ]
    },
    {
      "name" : "LeftEar3_J",
      "translation" : [ 0.1764, -1.42109e-16, -0 ],
      "rotation" : [ -0, -0, -1.38778e-17, -1 ]
    },
    {
      "name" : "RightEar1_J",
      "children" : [ 18 ],
      "translation" : [ 0.29619, 0.124201, 0.298611 ],
      "rotation" : [ 0.0770973, 0.357983, -0.195914, -0.909682 ]
    },
    {
      "name" : "RightEar2_J",
      "children" : [ 19 ],
      "translation" : [ 0.221393, 0, 2.84217e-16 ],
      "rotation" : [ -0.020968, -0.0462225, -0.00161566, -0.99871 ]
    },
    {
      "name" : "RightEar3_J",
      "translation" : [ 0.176403, -1.42109e-16, 1.42109e-16 ],
      "rotation" : [ 1.38778e-17, -5.55112e-17, 1.38778e-17, -1 ]
    },
    {
      "name" : "L_Clavicle_J",
      "children" : [ 21, 53 ],
      "translation" : [ 2.84217e-16, -0.1026, -4.23516e-24 ],
      "rotation" : [ 0, -0, 0.707107, -0.707107 ]
    },
    {
      "name" : "L_Arm_J",
      "children" : [ 22, 49, 50, 51, 52 ],
      "translation" : [ 0.2394, 0, -0 ],
      "rotation" : [ 0.0190871, -0.0449665, 0.390265, -0.919406 ]
    },
    {
      "name" : "L_ForeArm_J",
      "children" : [ 23, 24, 47, 48 ],
      "translation" : [ 0.816952, 0, 1.33227e-17 ],
      "rotation" : [ -0.0351951, 0.0894468, -0.00316275, -0.995365 ]
    },
    {
      "name" : "HLP_L_ForeArm_Mid",
      "translation" : [ 0.227327, -2.84217e-16, -1.77636e-17 ],
      "rotation" : [ -3.46945e-18, 3.46945e-18, -2.77556e-17, -1 ]
    },
    {
      "name" : "L_Wrist_J",
      "children" : [ 25, 45 ],
      "translation" : [ 0.454655, -2.84217e-16, -8.88178e-18 ],
      "rotation" : [ 0.707107, 2.20794e-17, -1.71729e-17, -0.707107 ]
    },
    {
      "name" : "L_Hand_J",
      "children" : [ 26 ],
      "translation" : [ 0, 0, -0 ],
      "rotation" : [ 6.93889e-18, -5.55112e-17, 1.04083e-17, -1 ]
    },
    {
      "name" : "L_FingerBase_J",
      "children" : [ 27, 30, 42 ],
      "translation" : [ 0.022343, -0.0397354, 2.84217e-16 ],
      "rotation" : [ -2.87002e-08, -3.4897e-15, 1.22114e-07, -1 ]
    },
    {
      "name" : "L_Thumb1_J",
      "children" : [ 28 ],
      "translation" : [ 0.0539127, -0.0438038, -0.00555653 ],
      "rotation" : [ -0.435183, -0.0131748, 0.32281, -0.840379 ]
    },
    {
      "name" : "L_Thumb2_J",
      "children" : [ 29 ],
      "translation" : [ 0.154691, -1.42109e-16, -1.42109e-16 ],
      "rotation" : [ -1.38778e-17, 4.81482e-35, 3.46945e-18, -1 ]
    },
    {
      "name" : "L_Thumb3_J",
      "translation" : [ 0.09072, 0, -0 ],
      "rotation" : [ 2.42861e-17, 2.52778e-34, -1.04083e-17, -1 ]
    },
    {
      "name" : "L_Middle_J",
      "children" : [ 31, 39 ],
      "translation" : [ 0, 0.02592, 2.4e-08 ],
      "rotation" : [ 3.46945e-18, -5.55112e-17, 3.46945e-18, -1 ]
    },
    {
      "name" : "L_Ring_J",
      "children" : [ 32, 36 ],
      "translation" : [ 0, 0.02592, 2.4e-08 ],
      "rotation" : [ -3.46945e-18, -2.77556e-17, 3.46945e-18, -1 ]
    },
    {
      "name" : "L_Pinky_J",
      "children" : [ 33 ],
      "translation" : [ 0, 0.02592, 3.6e-08 ],
      "rotation" : [ 3.46945e-18, 2.77556e-17, -3.46945e-18, -1 ]
    },
    {
      "name" : "L_Pinky1_J",
      "children" : [ 34 ],
      "translation" : [ 0.268197, 0.0375983, 0.0790481 ],
      "rotation" : [ 3.85186e-34, 5.55112e-17, -6.93889e-18, -1 ]
    },
    {
      "name" : "L_Pinky2_J",
      "children" : [ 35 ],
      "translation" : [ 0.10368, 3.55271e-17, -0 ],
      "rotation" : [ -3.46945e-18, -0, 0, -1 ]
    },
    {
      "name" : "L_Pinky3_J",
      "translation" : [ 0.0564797, 0, -0 ],
      "rotation" : [ -3.46945e-18, 2.77556e-17, -9.62965e-35, -1 ]
    },
    {
      "name" : "L_Ring1_J",
      "children" : [ 37 ],
      "translation" : [ 0.265938, 0.0246969, 0.0860289 ],
      "rotation" : [ 3.46945e-18, 2.77556e-17, -1.04083e-17, -1 ]
    },
    {
      "name" : "L_Ring2_J",
      "children" : [ 38 ],
      "translation" : [ 0.123587, -2.66454e-17, -0 ],
      "rotation" : [ -0, -0, 6.93889e-18, -1 ]
    },
    {
      "name" : "L_Ring3_J",
      "translation" : [ 0.072576, 8.88178e-18, -0 ],
      "rotation" : [ 1.92593e-34, -2.77556e-17, 6.93889e-18, -1 ]
    },
    {
      "name" : "L_Middle1_J",
      "children" : [ 40 ],
      "translation" : [ 0.273714, -0.0126292, 0.0860461 ],
      "rotation" : [ -3.46945e-18, -2.77556e-17, 3.46945e-18, -1 ]
    },
    {
      "name" : "L_Middle2_J",
      "children" : [ 41 ],
      "translation" : [ 0.119232, 1.77636e-17, -0 ],
      "rotation" : [ 3.46945e-18, 5.55112e-17, -6.93889e-18, -1 ]
    },
    {
      "name" : "L_Middle3_J",
      "translation" : [ 0.07776, -1.77636e-17, -0 ],
      "rotation" : [ -1.04083e-17, 2.77556e-17, -2.88889e-34, -1 ]
    },
    {
      "name" : "L_Index1_J",
      "children" : [ 43 ],
      "translation" : [ 0.260665, -0.0357429, 0.103911 ],
      "rotation" : [ 3.46945e-18, -0, -0, -1 ]
    },
    {
      "name" : "L_Index2_J",
      "children" : [ 44 ],
      "translation" : [ 0.113374, 2.66454e-17, -0 ],
      "rotation" : [ -3.46945e-18, -0, 0, -1 ]
    },
    {
      "name" : "L_Index3_J",
      "translation" : [ 0.075168, 0, -2.84217e-16 ],
      "rotation" : [ 3.46945e-18, 2.77556e-17, -6.93889e-18, -1 ]
    },
    {
      "name" : "L_Grip_J",
      "children" : [ 46 ],
      "translation" : [ 0.254016, -2.562e-05, -2.84217e-16 ],
      "rotation" : [ 6.93889e-18, -5.55112e-17, 1.04083e-17, -1 ]
    },
    {
      "name" : "L_GripOffset_J",
      "translation" : [ 0, 0, -0 ],
      "rotation" : [ -3.46945e-18, -2.77556e-17, 9.62965e-35, -1 ]
    },
    {
      "name" : "HLP_L_ForeArm_Btm",
      "translation" : [ 0.440496, -2.84217e-16, -8.88178e-18 ],
      "rotation" : [ -3.46945e-18, -4.99428e-26, -1.4395e-08, -1 ]
    },
    {
      "name" : "HLP_L_ForeArm_Slide",
      "translation" : [ 0.227147, -2.84217e-16, -1.77636e-17 ],
      "rotation" : [ -3.46596e-18, -9.65875e-35, -2.78674e-17, -1 ]
    },
    {
      "name" : "HLP_L_Arm_Mid",
      "translation" : [ 0.408476, 0, 8.88178e-18 ],
      "rotation" : [ -0.0103785, 2.20752e-18, -2.778e-17, -0.999946 ]
    },
    {
      "name" : "HLP_L_Arm_Top",
      "translation" : [ 1.8e-05, 0, 4.44089e-18 ],
      "rotation" : [ -0.0203344, 0.0229492, -0.199177, -0.979484 ]
    },
    {
      "name" : "HLP_L_Elbow",
      "translation" : [ 0.817252, 0, 1.33227e-17 ],
      "rotation" : [ 0.0358184, 0.0358184, 0.00128459, -0.998715 ]
    },
    {
      "name" : "HLP_L_Arm_Slide",
      "translation" : [ 0.408656, 0, -0 ],
      "rotation" : [ -9.34201e-18, -4.47114e-18, -2.78674e-17, -1 ]
    },
    {
      "name" : "HLP_L_ShldrBlade",
      "translation" : [ 0.05985, 0, -0 ],
      "rotation" : [ -2.87735e-18, -0.0188102, 0.19961, -0.979695 ]
    },
    {
      "name" : "R_Clavicle_J",
      "children" : [ 55, 87 ],
      "translation" : [ 2.84217e-16, 0.1026, -4.23516e-24 ],
      "rotation" : [ 0, -0, -0.707107, -0.707107 ]
    },
    {
      "name" : "R_Arm_J",
      "children" : [ 56, 83, 84, 85, 86 ],
      "translation" : [ 0.2394, 2.84217e-16, -0 ],
      "rotation" : [ -0.0190871, -0.0449665, -0.390265, -0.919406 ]
    },
    {
      "name" : "R_ForeArm_J",
      "children" : [ 57, 58, 81, 82 ],
      "translation" : [ 0.816952, 2.4e-08, 2.4e-08 ],
      "rotation" : [ 0.0351951, 0.0894468, 0.00316275, -0.995365 ]
    },
    {
      "name" : "HLP_R_ForeArm_Mid",
      "translation" : [ 0.227327, 0, -0 ],
      "rotation" : [ 2.88889e-34, -1.04083e-17, 2.77556e-17, -1 ]
    },
    {
      "name" : "R_Wrist_J",
      "children" : [ 59, 79 ],
      "translation" : [ 0.454655, -2.84217e-16, -1.77636e-17 ],
      "rotation" : [ -0.707107, 1.22663e-17, 2.6986e-17, -0.707107 ]
    },
    {
      "name" : "R_Hand_J",
      "children" : [ 60 ],
      "translation" : [ 0, 0, -0 ],
      "rotation" : [ -3.46945e-18, -2.77556e-17, -3.46945e-18, -1 ]
    },
    {
      "name" : "R_FingerBase_J",
      "children" : [ 61, 64, 67 ],
      "translation" : [ 0.022343, 0.0397354, -0 ],
      "rotation" : [ 1.95898e-08, 2.77556e-17, 3.46945e-18, -1 ]
    },
    {
      "name" : "R_Thumb1_J",
      "children" : [ 62 ],
      "translation" : [ 0.0539127, 0.043812, -0.00555653 ],
      "rotation" : [ 0.435183, -0.0131748, -0.32281, -0.840379 ]
    },
    {
      "name" : "R_Thumb2_J",
      "children" : [ 63 ],
      "translation" : [ 0.154691, 1.42109e-16, -0 ],
      "rotation" : [ -1.38778e-17, 5.55112e-17, -1.38778e-17, -1 ]
    },
    {
      "name" : "R_Thumb3_J",
      "translation" : [ 0.09072, 0, -2.904e-06 ],
      "rotation" : [ 3.46945e-17, -2.77556e-17, -2.77556e-17, -1 ]
    },
    {
      "name" : "R_Index1_J",
      "children" : [ 65 ],
      "translation" : [ 0.260665, 0.035748, 0.103914 ],
      "rotation" : [ -6.93889e-18, 7.22224e-35, 1.04083e-17, -1 ]
    },
    {
      "name" : "R_Index2_J",
      "children" : [ 66 ],
      "translation" : [ 0.113374, 0, -0 ],
      "rotation" : [ -3.46945e-18, -2.77556e-17, 3.46945e-18, -1 ]
    },
    {
      "name" : "R_Index3_J",
      "translation" : [ 0.075168, 8.88178e-18, -0 ],
      "rotation" : [ -1.04083e-17, -5.55112e-17, -3.46945e-18, -1 ]
    },
    {
      "name" : "R_Middle_J",
      "children" : [ 68, 71 ],
      "translation" : [ -1.42109e-16, -0.02592, 2.4e-08 ],
      "rotation" : [ -0, -0, 1.04083e-17, -1 ]
    },
    {
      "name" : "R_Middle1_J",
      "children" : [ 69 ],
      "translation" : [ 0.273714, 0.012636, 0.0860461 ],
      "rotation" : [ -0, -0, 3.46945e-18, -1 ]
    },
    {
      "name" : "R_Middle2_J",
      "children" : [ 70 ],
      "translation" : [ 0.119232, 8.88178e-18, -0 ],
      "rotation" : [ -3.46945e-18, -2.77556e-17, 9.62965e-35, -1 ]
    },
    {
      "name" : "R_Middle3_J",
      "translation" : [ 0.07776, -8.88178e-18, -0 ],
      "rotation" : [ -3.46945e-18, 2.77556e-17, 6.93889e-18, -1 ]
    },
    {
      "name" : "R_Ring_J",
      "children" : [ 72, 75 ],
      "translation" : [ 0, -0.02592, 2.4e-08 ],
      "rotation" : [ -3.46945e-18, 2.40741e-35, 6.93889e-18, -1 ]
    },
    {
      "name" : "R_Ring1_J",
      "children" : [ 73 ],
      "translation" : [ 0.265938, -0.024696, 0.0860289 ],
      "rotation" : [ 2.88889e-34, 2.77556e-17, -1.04083e-17, -1 ]
    },
    {
      "name" : "R_Ring2_J",
      "children" : [ 74 ],
      "translation" : [ 0.123587, -1.77636e-17, -0 ],
      "rotation" : [ 9.62965e-35, -2.77556e-17, 3.46945e-18, -1 ]
    },
    {
      "name" : "R_Ring3_J",
      "translation" : [ 0.072576, -8.88178e-18, -0 ],
      "rotation" : [ -3.46945e-18, 2.77556e-17, -3.46945e-18, -1 ]
    },
    {
      "name" : "R_Pinky_J",
      "children" : [ 76 ],
      "translation" : [ 1.42109e-16, -0.02592, 3.6e-08 ],
      "rotation" : [ 2.88889e-34, 2.77556e-17, -1.04083e-17, -1 ]
    },
    {
      "name" : "R_Pinky1_J",
      "children" : [ 77 ],
      "translation" : [ 0.268197, -0.037602, 0.0790481 ],
      "rotation" : [ 1.92593e-34, 2.77556e-17, -6.93889e-18, -1 ]
    },
    {
      "name" : "R_Pinky2_J",
      "children" : [ 78 ],
      "translation" : [ 0.10368, -3.55271e-17, -0 ],
      "rotation" : [ -3.46945e-18, 2.77556e-17, -3.46945e-18, -1 ]
    },
    {
      "name" : "R_Pinky3_J",
      "translation" : [ 0.0564797, 3.55271e-17, -0 ],
      "rotation" : [ -3.46945e-18, -3.61112e-35, -1.04083e-17, -1 ]
    },
    {
      "name" : "R_Grip_J",
      "children" : [ 80 ],
      "translation" : [ 0.254016, -1.8e-05, -0 ],
      "rotation" : [ -9.62965e-35, -2.77556e-17, -3.46945e-18, -1 ]
    },
    {
      "name" : "R_GripOffset_J",
      "translation" : [ 0, 0, -0 ],
      "rotation" : [ -3.46945e-18, 2.77556e-17, 3.46945e-18, -1 ]
    },
    {
      "name" : "HLP_R_ForeArm_Btm",
      "translation" : [ 0.440496, 2.84217e-16, 8.88178e-18 ],
      "rotation" : [ 1.00136e-25, -6.93889e-18, 1.44311e-08, -1 ]
    },
    {
      "name" : "HLP_R_ForeArm_Slide",
      "translation" : [ 0.25992, 2.84217e-16, -0 ],
      "rotation" : [ -0.0087262, 7.61524e-05, 0.0087262, -0.999924 ]
    },
    {
      "name" : "HLP_R_Arm_Mid",
      "translation" : [ 0.408476, 2.4e-08, 2.4e-08 ],
      "rotation" : [ 0.0103785, 1.08552e-08, -1.29224e-08, -0.999946 ]
    },
    {
      "name" : "HLP_R_Arm_Top",
      "translation" : [ 1.8e-05, 2.4e-08, 2.4e-08 ],
      "rotation" : [ 0.0203344, 0.0229492, 0.199177, -0.979484 ]
    },
    {
      "name" : "HLP_R_Elbow",
      "translation" : [ 0.817252, 2.4e-08, 2.4e-08 ],
      "rotation" : [ -5.1723e-10, 0.0358414, 1.44218e-08, -0.999357 ]
    },
    {
      "name" : "HLP_R_Arm_Slide",
      "translation" : [ 0.408656, 2.4e-08, 2.4e-08 ],
      "rotation" : [ 8.15418e-18, -5.5117e-18, 2.78674e-17, -1 ]
    },
    {
      "name" : "HLP_R_ShldrBlade",
      "translation" : [ 0.05985, 0, -0 ],
      "rotation" : [ -3.09869e-18, -0.0188102, -0.19961, -0.979695 ]
    },
    {
      "name" : "HLP_L_CollarBone",
      "translation" : [ 5.76e-07, -0.021375, -4.23516e-24 ],
      "rotation" : [ -1.09915e-08, 1.09914e-08, 0.707106, -0.707108 ]
    },
    {
      "name" : "HLP_R_CollarBone",
      "translation" : [ 4.68e-07, 0.021375, -4.23516e-24 ],
      "rotation" : [ -1.09913e-08, -1.09913e-08, -0.707106, -0.707107 ]
    },
    {
      "name" : "Chest_J",
      "translation" : [ 0.12996, 0, -0 ],
      "rotation" : [ -0, -0, 0, -1 ]
    },
    {
      "name" : "Rear_J",
      "translation" : [ 0.12996, 0, -0 ],
      "rotation" : [ -0, -0, 0, -1 ]
    },
    {
      "name" : "L_UpLeg_J",
      "children" : [ 93, 100, 101, 102 ],
      "translation" : [ 0, -0.18, -0 ],
      "rotation" : [ -0, -1, 0, 6.12323e-17 ]
    },
    {
      "name" : "L_Leg_J",
      "children" : [ 94, 97, 98, 99 ],
      "translation" : [ 0.47844, 0, -3.15544e-32 ],
      "rotation" : [ -3.39749e-33, 0.275637, 1.18485e-32, -0.961262 ]
    },
    {
      "name" : "L_Foot_J",
      "children" : [ 95 ],
      "translation" : [ 0.242, -3.55271e-17, -1.06581e-16 ],
      "rotation" : [ 6.34833e-33, -0.515038, 1.05654e-32, -0.857167 ]
    },
    {
      "name" : "L_Toe_J",
      "children" : [ 96 ],
      "translation" : [ 0.277, 3.55271e-17, -1.77636e-17 ],
      "rotation" : [ 1.06746e-32, -0.5, -6.16298e-33, -0.866025 ]
    },
    {
      "name" : "L_Sole_J",
      "translation" : [ -8.88178e-18, 0, 0.048 ],
      "rotation" : [ -0, 0.707107, -0, -0.707107 ]
    },
    {
      "name" : "HLP_L_Leg_Slide",
      "translation" : [ 0.121, 0, -3.55271e-17 ],
      "rotation" : [ -0, -0, 1.28227e-32, -1 ]
    },
    {
      "name" : "HLP_L_Leg_Btm",
      "translation" : [ 0.2419, 0, -0 ],
      "rotation" : [ -3.71177e-34, -0.267238, 1.02936e-34, -0.96363 ]
    },
    {
      "name" : "HLP_L_Leg_Mid",
      "translation" : [ 0.1209, 0, -0 ],
      "rotation" : [ -0.00297554, -0.0245904, -0.120091, -0.992454 ]
    },
    {
      "name" : "HLP_L_Knee",
      "translation" : [ 0.47844, 0, -1.8e-05 ],
      "rotation" : [ -0, 0.139173, -0, -0.990268 ]
    },
    {
      "name" : "HLP_L_UpLeg_Mid",
      "translation" : [ 0.23922, -3.55271e-17, -3.15544e-32 ],
      "rotation" : [ -0, -0, 0, -1 ]
    },
    {
      "name" : "HLP_L_UpLeg_Slide",
      "translation" : [ 0.23022, 0, 9.6e-08 ],
      "rotation" : [ -0, -0, 0, -1 ]
    },
    {
      "name" : "R_UpLeg_J",
      "children" : [ 104, 111, 112, 113 ],
      "translation" : [ 0, 0.18, -0 ],
      "rotation" : [ -0, -1, 0, 6.12323e-17 ]
    },
    {
      "name" : "R_Leg_J",
      "children" : [ 105, 108, 109, 110 ],
      "translation" : [ 0.47844, 0, -0 ],
      "rotation" : [ -3.39749e-33, 0.275637, 1.18485e-32, -0.961262 ]
    },
    {
      "name" : "R_Foot_J",
      "children" : [ 106 ],
      "translation" : [ 0.242, -3.55271e-17, -1.06581e-16 ],
      "rotation" : [ 6.34833e-33, -0.515038, 1.05654e-32, -0.857167 ]
    },
    {
      "name" : "R_Toe_J",
      "children" : [ 107 ],
      "translation" : [ 0.277, 3.55271e-17, -1.33227e-17 ],
      "rotation" : [ -0, -0.5, 0, -0.866025 ]
    },
    {
      "name" : "R_Sole_J",
      "translation" : [ -8.88178e-18, 0, 0.048 ],
      "rotation" : [ -0, 0.707107, -0, -0.707107 ]
    },
    {
      "name" : "HLP_R_Leg_Slide",
      "translation" : [ 0.121, 0, -0 ],
      "rotation" : [ -0, -0, 1.28227e-32, -1 ]
    },
    {
      "name" : "HLP_R_Leg_Btm",
      "translation" : [ 0.2419, 0, -0 ],
      "rotation" : [ -3.71177e-34, -0.267238, 1.02936e-34, -0.96363 ]
    },
    {
      "name" : "HLP_R_Leg_Mid",
      "translation" : [ 0.1209, 0, -0 ],
      "rotation" : [ -0, 2.77556e-17, 1.2326e-32, -1 ]
    },
    {
      "name" : "HLP_R_Knee",
      "translation" : [ 0.47844, 0, -1.8e-05 ],
      "rotation" : [ -0, 0.139173, -0, -0.990268 ]
    },
    {
      "name" : "HLP_R_UpLeg_Mid",
      "translation" : [ 0.23922, -3.55271e-17, -1.57772e-32 ],
      "rotation" : [ -0, -0, 4.21468e-08, -1 ]
    },
    {
      "name" : "HLP_R_UpLeg_Slide",
      "translation" : [ 0.23022, 0, -0 ],
      "rotation" : [ -0, -0, 0, -1 ]
    },
    {
      "name" : "HLP_L_Butt",
      "translation" : [ 0.072, -0.18, -0 ],
      "rotation" : [ -0, -1, 0, -6.12323e-17 ]
    },
    {
      "name" : "HLP_R_Butt",
      "translation" : [ 0.072, 0.18, -0 ],
      "rotation" : [ -0, -1, 0, -6.12323e-17 ]
    },
    {
      "name" : "Tail1_J",
      "children" : [ 117 ],
      "translation" : [ 0.0666005, 6.24e-07, -0.1512 ],
      "rotation" : [ -0.5, -0.5, 0.5, -0.5 ]
    },
    {
      "name" : "Tail2_J",
      "children" : [ 118 ],
      "translation" : [ 0.2502, 1.42109e-16, -5.55556e-17 ],
      "rotation" : [ -0, 0, 0, -1 ]
    },
    {
      "name" : "Tail3_J",
      "children" : [ 119 ],
      "translation" : [ 0.2268, -4.26326e-16, -5.03597e-17 ],
      "rotation" : [ -0, 0, 0, -1 ]
    },
    {
      "name" : "Tail4_J",
      "children" : [ 120 ],
      "translation" : [ 0.234, 2.84217e-16, -5.19584e-17 ],
      "rotation" : [ -0, 0, 0, -1 ]
    },
    {
      "name" : "Tail5_J",
      "children" : [ 121 ],
      "translation" : [ 0.238564, -8.52651e-16, -5.29718e-17 ],
      "rotation" : [ -0, 0, 0, -1 ]
    },
    {
      "name" : "Tail6_J",
      "children" : [ 122 ],
      "translation" : [ 0.251091, 1.42109e-16, -5.57533e-17 ],
      "rotation" : [ -0, 0, 0, -1 ]
    },
    {
      "name" : "Tail7_J",
      "children" : [ 123 ],
      "translation" : [ 0.250707, 0, -5.56682e-17 ],
      "rotation" : [ -0, 0, 0, -1 ]
    },
    {
      "name" : "Tail8_J",
      "translation" : [ 0.234, 0, -5.19584e-17 ],
      "rotation" : [ 0, 0.707107, 0, -0.707107 ]
    }
  ],
  "skins" : [
    {
      "inverseBindMatrices" : 0,
      "skeleton" : 1,
      "joints" : [
        1,2,3,4,5,6,7,8,9,10,11,12,13,14,15,16,17,18,19,20,21,22,23,24,25,26,27,28,29,30,31,32,
        33,34,35,36,37,38,39,40,41,42,43,44,45,46,47,48,49,50,51,52,53,54,55,56,57,58,59,60,61,62,63,64,
        65,66,67,68,69,70,71,72,73,74,75,76,77,78,79,80,81,82,83,84,85,86,87,88,89,90,91,92,93,94,95,96,
        97,98,99,100,101,102,103,104,105,106,107,108,109,110,111,112,113,114,115,116,117,118,119,120,121,122,123
      ]
    }
  ],
  "materials" : [
    {
      "name" : "M_CH_E000_00_body02",
      "pbrMetallicRoughness" : {
        "baseColorFactor" : [ 0.3, 0.3, 0.3, 1.0 ],
        "metallicFactor" : 0.1,
        "roughnessFactor" : 0.5
      }
    }
  ],
  "meshes" : [
    {
      "primitives" : [
        {
          "attributes" : {
            "POSITION" : 2,
            "NORMAL" : 3,
            "TANGENT" : 4,
            "COLOR_0" : 5,
            "JOINTS_0" : 6,
            "WEIGHTS_0" : 7,
            "TEXCOORD_0" : 8,
            "TEXCOORD_1" : 9
          },
          "indices" : 1,
          "material" : 0
        }
      ],
      "name" : "SK_CH_E000_00"
    }
  ],
  "buffers" : [
    {
      "uri" : "SK_CH_E000_00.bin",
      "byteLength" : 943248
    }
  ],
  "bufferViews" : [
    {
      "buffer" : 0,
      "byteOffset" : 0,
      "byteLength" : 7872
    },
    {
      "buffer" : 0,
      "byteOffset" : 7872,
      "byteLength" : 98808
    },
    {
      "buffer" : 0,
      "byteOffset" : 106680,
      "byteLength" : 139428
    },
    {
      "buffer" : 0,
      "byteOffset" : 246108,
      "byteLength" : 139428
    },
    {
      "buffer" : 0,
      "byteOffset" : 385536,
      "byteLength" : 185904
    },
    {
      "buffer" : 0,
      "byteOffset" : 571440,
      "byteLength" : 46476
    },
    {
      "buffer" : 0,
      "byteOffset" : 617916,
      "byteLength" : 92952
    },
    {
      "buffer" : 0,
      "byteOffset" : 710868,
      "byteLength" : 46476
    },
    {
      "buffer" : 0,
      "byteOffset" : 757344,
      "byteLength" : 92952
    },
    {
      "buffer" : 0,
      "byteOffset" : 850296,
      "byteLength" : 92952
    }
  ],
  "accessors" : [
    {
      "bufferView" : 0,
      "componentType" : 5126,
      "count" : 123,
      "type" : "MAT4"
    },
    {
      "bufferView" : 1,
      "componentType" : 5123,
      "count" : 49404,
      "type" : "SCALAR"
    },
    {
      "bufferView" : 2,
      "min" : [ -1.69022, -0.0296776, -1.06627 ],
      "max" : [ 1.69022, 2.69816, 0.970934 ],
      "componentType" : 5126,
      "count" : 11619,
      "type" : "VEC3"
    },
    {
      "bufferView" : 3,
      "componentType" : 5126,
      "count" : 11619,
      "type" : "VEC3"
    },
    {
      "bufferView" : 4,
      "componentType" : 5126,
      "count" : 11619,
      "type" : "VEC4"
    },
    {
      "bufferView" : 5,
      "normalized" : true,
      "componentType" : 5121,
      "count" : 11619,
      "type" : "VEC4"
    },
    {
      "bufferView" : 6,
      "componentType" : 5123,
      "count" : 11619,
      "type" : "VEC4"
    },
    {
      "bufferView" : 7,
      "normalized" : true,
      "componentType" : 5121,
      "count" : 11619,
      "type" : "VEC4"
    },
    {
      "bufferView" : 8,
      "componentType" : 5126,
      "count" : 11619,
      "type" : "VEC2"
    },
    {
      "bufferView" : 9,
      "componentType" : 5126,
      "count" : 11619,
      "type" : "VEC2"
    }
  ]
}
