{
  "asset" : {
    "generator" : "UE Viewer (umodel) build 1579 based",
    "version" : "2.0"
  },
  "scene" : 0,
  "scenes" : [
    {
      "nodes" : [ 0 ]
    }
  ],
  "nodes" : [
    {
      "name" : "SK_CH_cmn_Ani_00_00",
      "mesh" : 0,
      "skin" : 0,
      "children" : [ 1 ]
    },
    {
      "name" : "root",
      "children" : [ 2 ],
      "translation" : [ 0, 0, 0 ],
      "rotation" : [ 3.06162e-17, -0, -0, 1 ]
    },
    {
      "name" : "CHICKEN_",
      "children" : [ 3 ],
      "translation" : [ 0, 0.246, -0.0575617 ],
      "rotation" : [ -0.454519, 0.541675, 0.45452, -0.541676 ]
    },
    {
      "name" : "CHICKEN_-Pelvis",
      "children" : [ 4, 19, 31 ],
      "translation" : [ 0, -1.77636e-17, -1.69407e-23 ],
      "rotation" : [ 0.5, 0.5, -0.5, -0.5 ]
    },
    {
      "name" : "CHICKEN_-Spine",
      "children" : [ 5, 10, 14, 18 ],
      "translation" : [ 0.0795734, 1.10271e-07, 6.58719e-05 ],
      "rotation" : [ 2.08049e-06, -0.000398155, -6.56479e-07, -1 ]
    },
    {
      "name" : "CHICKEN_-Neck",
      "children" : [ 6 ],
      "translation" : [ 0.0672884, 3.48275e-09, 0.0151685 ],
      "rotation" : [ -5.19374e-09, 0.208862, 6.08379e-07, -0.977945 ]
    },
    {
      "name" : "CHICKEN_-Neck1",
      "children" : [ 7 ],
      "translation" : [ 0.0601242, -1.28888e-10, 4.63148e-05 ],
      "rotation" : [ 7.07599e-10, 0.12852, 3.6071e-07, -0.991707 ]
    },
    {
      "name" : "CHICKEN_-Neck2",
      "children" : [ 8 ],
      "translation" : [ 0.0601294, -1.04483e-10, 3.75284e-05 ],
      "rotation" : [ -2.34529e-09, 0.0921524, 2.9908e-07, -0.995745 ]
    },
    {
      "name" : "CHICKEN_-Head",
      "children" : [ 9 ],
      "translation" : [ 0.0479488, 2.13016e-14, -1.0686e-09 ],
      "rotation" : [ 5.64415e-09, 0.111046, 3.00509e-07, -0.993815 ]
    },
    {
      "name" : "CHICKEN_-Queue-de-cheval-1",
      "translation" : [ 0.00541474, 4.00164e-07, -0.0129837 ],
      "rotation" : [ 2.94682e-06, -0.709538, -9.12782e-08, -0.704667 ]
    },
    {
      "name" : "CHICKEN_-R-Clavicle",
      "children" : [ 11 ],
      "translation" : [ 0.0826087, -0.0179187, 0.0437508 ],
      "rotation" : [ 0.379821, -0.920349, 0.0863394, 0.0352066 ]
    },
    {
      "name" : "CHICKEN_-R-UpperArm",
      "children" : [ 12 ],
      "translation" : [ 0.024205, -8.70813e-09, -7.02495e-10 ],
      "rotation" : [ -0.500855, 0.0876662, -0.0807033, -0.85729 ]
    },
    {
      "name" : "CHICKEN_-R-Forearm",
      "children" : [ 13 ],
      "translation" : [ 0.120527, -1.64144e-09, -4.51077e-09 ],
      "rotation" : [ -7.032e-09, 0.563441, -4.79585e-09, -0.826156 ]
    },
    {
      "name" : "CHICKEN_-R-Hand",
      "translation" : [ 0.0852812, 7.80302e-09, 1.62512e-09 ],
      "rotation" : [ -0.447673, -0.591821, 0.604167, -0.290376 ]
    },
    {
      "name" : "CHICKEN_-L-Clavicle",
      "children" : [ 15 ],
      "translation" : [ 0.0826087, 0.0179184, 0.0437509 ],
      "rotation" : [ -0.379821, -0.920349, -0.086342, 0.0352076 ]
    },
    {
      "name" : "CHICKEN_-L-UpperArm",
      "children" : [ 16 ],
      "translation" : [ 0.024205, 4.69511e-09, -1.73508e-09 ],
      "rotation" : [ 0.500855, 0.0876661, 0.0807034, -0.85729 ]
    },
    {
      "name" : "CHICKEN_-L-Forearm",
      "children" : [ 17 ],
      "translation" : [ 0.120527, 4.7678e-10, -2.85109e-09 ],
      "rotation" : [ -5.36723e-09, 0.563441, -3.66047e-09, -0.826156 ]
    },
    {
      "name" : "CHICKEN_-L-Hand",
      "translation" : [ 0.0852812, -3.40569e-09, -1.01639e-08 ],
      "rotation" : [ -0.447673, 0.591821, 0.604167, 0.290376 ]
    },
    {
      "name" : "CHICKEN_-Tail",
      "translation" : [ -0.151448, -3.82236e-08, 0.0309038 ],
      "rotation" : [ -9.79724e-09, -0.906308, -2.50648e-06, 0.422618 ]
    },
    {
      "name" : "CHICKEN_-R-Thigh",
      "children" : [ 20 ],
      "translation" : [ 1.03766e-07, -0.068235, 9.30171e-08 ],
      "rotation" : [ -0.935233, -0.00317674, 0.353928, 0.00806239 ]
    },
    {
      "name" : "CHICKEN_-R-Calf",
      "children" : [ 21 ],
      "translation" : [ 0.0970107, 9.84708e-10, -9.41782e-09 ],
      "rotation" : [ -3.29861e-09, 0.674674, -3.01509e-09, -0.738116 ]
    },
    {
      "name" : "CHICKEN_-R-HorseLink",
      "children" : [ 22 ],
      "translation" : [ 0.126112, -1.15829e-09, -8.61732e-10 ],
      "rotation" : [ 6.37862e-09, -0.346872, -2.35903e-09, -0.937913 ]
    },
    {
      "name" : "CHICKEN_-R-Foot",
      "children" : [ 23, 25, 27, 29 ],
      "translation" : [ 0.0689598, -5.60566e-10, -2.18721e-09 ],
      "rotation" : [ -0.0832681, 0.117942, -0.0185481, -0.989349 ]
    },
    {
      "name" : "CHICKEN_-R-Toe0",
      "children" : [ 24 ],
      "translation" : [ 0.0146633, -0.00134099, 0.00316264 ],
      "rotation" : [ 0.696077, -0.124404, 0.696077, -0.124405 ]
    },
    {
      "name" : "CHICKEN_-R-Toe01",
      "translation" : [ 0.0106005, 7.93471e-10, 4.73507e-11 ],
      "rotation" : [ -0, -0, -3.17705e-17, -1 ]
    },
    {
      "name" : "CHICKEN_-R-Toe1",
      "children" : [ 26 ],
      "translation" : [ 0.014148, 0.0131443, -0.0156854 ],
      "rotation" : [ -0.194842, -0.679733, -0.194842, -0.679733 ]
    },
    {
      "name" : "CHICKEN_-R-Toe11",
      "translation" : [ 0.0171511, -6.41357e-09, 1.16018e-10 ],
      "rotation" : [ 4.33681e-19, 8.67362e-19, -1.43487e-17, -1 ]
    },
    {
      "name" : "CHICKEN_-R-Toe2",
      "children" : [ 28 ],
      "translation" : [ 0.014148, 0.000580473, -0.0233697 ],
      "rotation" : [ 0.0480243, -0.705474, 0.0480244, -0.705474 ]
    },
    {
      "name" : "CHICKEN_-R-Toe21",
      "translation" : [ 0.0213407, 2.41741e-10, -3.65515e-11 ],
      "rotation" : [ -1.00266e-36, -8.67362e-19, -1.15599e-18, -1 ]
    },
    {
      "name" : "CHICKEN_-R-Toe3",
      "children" : [ 30 ],
      "translation" : [ 0.0157194, -0.0129962, -0.0116442 ],
      "rotation" : [ 0.290053, -0.644879, 0.290053, -0.644879 ]
    },
    {
      "name" : "CHICKEN_-R-Toe31",
      "translation" : [ 0.0162065, -3.80429e-10, -2.50539e-11 ],
      "rotation" : [ 4.33681e-19, -2.60209e-18, -5.94854e-17, -1 ]
    },
    {
      "name" : "CHICKEN_-L-Thigh",
      "children" : [ 32 ],
      "translation" : [ -8.49824e-08, 0.068235, -9.63291e-08 ],
      "rotation" : [ -0.935233, 0.00317586, 0.353928, -0.0080642 ]
    },
    {
      "name" : "CHICKEN_-L-Calf",
      "children" : [ 33 ],
      "translation" : [ 0.0970106, -6.33104e-10, -9.41331e-09 ],
      "rotation" : [ -8.03517e-09, 0.674674, -7.34453e-09, -0.738116 ]
    },
    {
      "name" : "CHICKEN_-L-HorseLink",
      "children" : [ 34 ],
      "translation" : [ 0.126112, 2.83784e-09, -2.68987e-09 ],
      "rotation" : [ 3.42499e-08, -0.346872, -1.26668e-08, -0.937913 ]
    },
    {
      "name" : "CHICKEN_-L-Foot",
      "children" : [ 35, 37, 39, 41 ],
      "translation" : [ 0.0689598, -4.6087e-09, 1.79067e-09 ],
      "rotation" : [ 0.0832687, 0.117942, 0.0185482, -0.989349 ]
    },
    {
      "name" : "CHICKEN_-L-Toe0",
      "children" : [ 36 ],
      "translation" : [ 0.0146633, 0.00134099, 0.00316264 ],
      "rotation" : [ 0.696077, 0.124404, 0.696077, 0.124404 ]
    },
    {
      "name" : "CHICKEN_-L-Toe01",
      "translation" : [ 0.0106005, 4.50417e-09, -1.11264e-11 ],
      "rotation" : [ -0, -0, 4.82504e-17, -1 ]
    },
    {
      "name" : "CHICKEN_-L-Toe1",
      "children" : [ 38 ],
      "translation" : [ 0.014148, -0.0131443, -0.0156854 ],
      "rotation" : [ 0.194842, -0.679733, 0.194842, -0.679733 ]
    },
    {
      "name" : "CHICKEN_-L-Toe11",
      "translation" : [ 0.0171511, 3.28926e-11, -8.89145e-11 ],
      "rotation" : [ -8.67362e-19, -1.73472e-18, -7.26754e-18, -1 ]
    },
    {
      "name" : "CHICKEN_-L-Toe2",
      "children" : [ 40 ],
      "translation" : [ 0.014148, -0.000580441, -0.0233697 ],
      "rotation" : [ -0.0480248, -0.705474, -0.0480248, -0.705474 ]
    },
    {
      "name" : "CHICKEN_-L-Toe21",
      "translation" : [ 0.0213407, 3.87898e-09, -8.70852e-11 ],
      "rotation" : [ 2.71051e-20, -3.78821e-39, 1.3976e-19, -1 ]
    },
    {
      "name" : "CHICKEN_-L-Toe3",
      "children" : [ 42 ],
      "translation" : [ 0.0157194, 0.0129962, -0.0116442 ],
      "rotation" : [ -0.290054, -0.644879, -0.290054, -0.644879 ]
    },
    {
      "name" : "CHICKEN_-L-Toe31",
      "translation" : [ 0.0162065, -1.33521e-09, 1.58602e-11 ],
      "rotation" : [ -4.33681e-19, 2.60209e-18, 7.39121e-17, -1 ]
    }
  ],
  "skins" : [
    {
      "inverseBindMatrices" : 0,
      "skeleton" : 1,
      "joints" : [
        1,2,3,4,5,6,7,8,9,10,11,12,13,14,15,16,17,18,19,20,21,22,23,24,25,26,27,28,29,30,31,32,
        33,34,35,36,37,38,39,40,41,42
      ]
    }
  ],
  "materials" : [
    {
      "name" : "M_CH_cmn_Ani_00_00_body",
      "pbrMetallicRoughness" : {
        "baseColorFactor" : [ 0.3, 0.3, 0.3, 1.0 ],
        "metallicFactor" : 0.1,
        "roughnessFactor" : 0.5
      }
    }
  ],
  "meshes" : [
    {
      "primitives" : [
        {
          "attributes" : {
            "POSITION" : 2,
            "NORMAL" : 3,
            "TANGENT" : 4,
            "COLOR_0" : 5,
            "JOINTS_0" : 6,
            "WEIGHTS_0" : 7,
            "TEXCOORD_0" : 8,
            "TEXCOORD_1" : 9
          },
          "indices" : 1,
          "material" : 0
        }
      ],
      "name" : "SK_CH_cmn_Ani_00_00"
    }
  ],
  "buffers" : [
    {
      "uri" : "SK_CH_cmn_Ani_00_00.bin",
      "byteLength" : 316056
    }
  ],
  "bufferViews" : [
    {
      "buffer" : 0,
      "byteOffset" : 0,
      "byteLength" : 2688
    },
    {
      "buffer" : 0,
      "byteOffset" : 2688,
      "byteLength" : 34656
    },
    {
      "buffer" : 0,
      "byteOffset" : 37344,
      "byteLength" : 46452
    },
    {
      "buffer" : 0,
      "byteOffset" : 83796,
      "byteLength" : 46452
    },
    {
      "buffer" : 0,
      "byteOffset" : 130248,
      "byteLength" : 61936
    },
    {
      "buffer" : 0,
      "byteOffset" : 192184,
      "byteLength" : 15484
    },
    {
      "buffer" : 0,
      "byteOffset" : 207668,
      "byteLength" : 30968
    },
    {
      "buffer" : 0,
      "byteOffset" : 238636,
      "byteLength" : 15484
    },
    {
      "buffer" : 0,
      "byteOffset" : 254120,
      "byteLength" : 30968
    },
    {
      "buffer" : 0,
      "byteOffset" : 285088,
      "byteLength" : 30968
    }
  ],
  "accessors" : [
    {
      "bufferView" : 0,
      "componentType" : 5126,
      "count" : 42,
      "type" : "MAT4"
    },
    {
      "bufferView" : 1,
      "componentType" : 5123,
      "count" : 17328,
      "type" : "SCALAR"
    },
    {
      "bufferView" : 2,
      "min" : [ -0.261606, -0.00189493, -0.338327 ],
      "max" : [ 0.261606, 0.571278, 0.291308 ],
      "componentType" : 5126,
      "count" : 3871,
      "type" : "VEC3"
    },
    {
      "bufferView" : 3,
      "componentType" : 5126,
      "count" : 3871,
      "type" : "VEC3"
    },
    {
      "bufferView" : 4,
      "componentType" : 5126,
      "count" : 3871,
      "type" : "VEC4"
    },
    {
      "bufferView" : 5,
      "normalized" : true,
      "componentType" : 5121,
      "count" : 3871,
      "type" : "VEC4"
    },
    {
      "bufferView" : 6,
      "componentType" : 5123,
      "count" : 3871,
      "type" : "VEC4"
    },
    {
      "bufferView" : 7,
      "normalized" : true,
      "componentType" : 5121,
      "count" : 3871,
      "type" : "VEC4"
    },
    {
      "bufferView" : 8,
      "componentType" : 5126,
      "count" : 3871,
      "type" : "VEC2"
    },
    {
      "bufferView" : 9,
      "componentType" : 5126,
      "count" : 3871,
      "type" : "VEC2"
    }
  ]
}
